<svg id="Layer_3" enable-background="new 0 0 64 64" height="512" viewBox="0 0 64 64" width="512" xmlns="http://www.w3.org/2000/svg"><path d="m18 12v-8c0-1.105-.895-2-2-2h-12c-1.105 0-2 .895-2 2v8c0 1.105.895 2 2 2h5l4 4v-4h3c1.105 0 2-.895 2-2z" fill="#85b6cf"/><path d="m44 12v-8c0-1.105.895-2 2-2h14c1.105 0 2 .895 2 2v8c0 1.105-.895 2-2 2h-5l-4 4v-4h-5c-1.105 0-2-.895-2-2z" fill="#85b6cf"/><path d="m44 20v-2l-4-2h-11l-2 2-2-2h-4l-2 2v2l-3 3v5l4 4v-3h6.757c2.716 0 5.322-1.079 7.243-3 1.921 1.921 4.526 3 7.243 3h2.757v3l4-4v-4z" fill="#cb9e78"/><g fill="#fdd089"><path d="m20 36v-7h6.757c2.717 0 5.322-1.079 7.243-3 1.921 1.921 4.526 3 7.243 3h2.757v7c0 6.627-5.373 12-12 12-6.627 0-12-5.373-12-12z"/><path d="m20 36v-4h-2c-1.105 0-2 .895-2 2v2c0 1.105.895 2 2 2h2.18c-.11-.652-.18-1.317-.18-2z"/><path d="m46 32h-2v4c0 .683-.07 1.348-.18 2h2.18c1.105 0 2-.895 2-2v-2c0-1.105-.895-2-2-2z"/><path d="m32 48c-1.405 0-2.747-.254-4-.697v4.697l4 4 4-4s0-2.624 0-4.697c-1.253.443-2.595.697-4 .697z"/></g><path d="m46 54c-1.281-1.281-3.017-2-4.828-2h-5.172l-4 4-4-4h-5.172c-1.811 0-3.548.719-4.828 2s-2 3.017-2 4.828v3.172h32v-3.172c0-1.811-.719-3.547-2-4.828z" fill="#dc6068"/><path d="m32 49c-7.168 0-13-5.832-13-13v-7c0-.553.447-1 1-1h6.758c2.469 0 4.789-.961 6.535-2.707.391-.391 1.023-.391 1.414 0 1.746 1.746 4.066 2.707 6.535 2.707h2.758c.553 0 1 .447 1 1v7c0 7.168-5.832 13-13 13zm-11-19v6c0 6.065 4.935 11 11 11s11-4.935 11-11v-6h-1.758c-2.681 0-5.218-.932-7.242-2.643-2.024 1.711-4.562 2.643-7.242 2.643z"/><path d="m46 39h-2v-2h2c.552 0 1-.448 1-1v-2c0-.552-.448-1-1-1h-2c-.404 0-.77-.243-.924-.617-.155-.374-.069-.804.217-1.09l3.707-3.707v-3.172l-3.707-3.707c-.188-.187-.293-.441-.293-.707v-1.382l-3.236-1.618h-10.35l-1.707 1.707c-.391.391-1.023.391-1.414 0l-1.707-1.707h-3.172l-1.414 1.414v1.586c0 .266-.105.52-.293.707l-2.707 2.707v4.172l3.707 3.707c.286.286.372.716.217 1.09-.154.374-.52.617-.924.617h-2c-.552 0-1 .448-1 1v2c0 .552.448 1 1 1h2v2h-2c-1.654 0-3-1.346-3-3v-2c0-1.522 1.14-2.783 2.611-2.975l-2.318-2.318c-.188-.187-.293-.441-.293-.707v-5c0-.266.105-.52.293-.707l2.707-2.707v-1.586c0-.266.105-.52.293-.707l2-2c.187-.188.441-.293.707-.293h4c.266 0 .52.105.707.293l1.293 1.293 1.293-1.293c.187-.188.441-.293.707-.293h11c.155 0 .309.036.447.105l4 2c.339.17.553.516.553.895v1.586l3.707 3.707c.188.187.293.441.293.707v4c0 .266-.105.52-.293.707l-2.318 2.318c1.471.192 2.611 1.453 2.611 2.975v2c0 1.654-1.346 3-3 3z"/><path d="m32 57c-.256 0-.512-.098-.707-.293l-4-4c-.188-.187-.293-.441-.293-.707v-5h2v4.586l3 3 3-3v-4.586h2v5c0 .266-.105.52-.293.707l-4 4c-.195.195-.451.293-.707.293z"/><path d="m25 32h2v4h-2z"/><path d="m37 32h2v4h-2z"/><path d="m32 45c-2.206 0-4-1.794-4-4h2c0 1.103.897 2 2 2s2-.897 2-2h2c0 2.206-1.794 4-4 4z"/><path d="m48 63h-32c-.553 0-1-.447-1-1v-3.172c0-2.061.836-4.078 2.293-5.535s3.475-2.293 5.535-2.293h5.172v2h-5.172c-1.534 0-3.036.622-4.121 1.707s-1.707 2.587-1.707 4.121v2.172h30v-2.172c0-1.534-.622-3.036-1.707-4.121s-2.587-1.707-4.121-1.707h-5.172v-2h5.172c2.061 0 4.078.836 5.535 2.293s2.293 3.475 2.293 5.535v3.172c0 .553-.447 1-1 1z"/><path d="m13 19c-.26 0-.516-.102-.707-.293l-3.707-3.707h-4.586c-1.654 0-3-1.346-3-3v-8c0-1.654 1.346-3 3-3h12c1.654 0 3 1.346 3 3v8c0 1.654-1.346 3-3 3h-2v3c0 .404-.243.77-.617.924-.124.052-.254.076-.383.076zm-9-16c-.552 0-1 .448-1 1v8c0 .552.448 1 1 1h5c.266 0 .52.105.707.293l2.293 2.293v-1.586c0-.553.447-1 1-1h3c.552 0 1-.448 1-1v-8c0-.552-.448-1-1-1z"/><path d="m7 11c-.262 0-.517-.103-.707-.293l-2-2 1.414-1.414.751.751.572-2.286c.112-.446.511-.758.97-.758h7v2h-6.219l-.811 3.242c-.087.35-.355.625-.703.722-.088.024-.178.036-.267.036z"/><path d="m10 9h4v2h-4z"/><path d="m51 19c-.129 0-.259-.024-.383-.076-.374-.154-.617-.52-.617-.924v-3h-4c-1.654 0-3-1.346-3-3v-8c0-1.654 1.346-3 3-3h14c1.654 0 3 1.346 3 3v8c0 1.654-1.346 3-3 3h-4.586l-3.707 3.707c-.191.191-.447.293-.707.293zm-5-16c-.552 0-1 .448-1 1v8c0 .552.448 1 1 1h5c.553 0 1 .447 1 1v1.586l2.293-2.293c.187-.188.441-.293.707-.293h5c.552 0 1-.448 1-1v-8c0-.552-.448-1-1-1z"/><path d="m47 7h6v2h-6z"/><path d="m49 5h2v6h-2z"/><path d="m55 7h4v2h-4z"/></svg>