<svg height="512" viewBox="0 0 60 53" width="512" xmlns="http://www.w3.org/2000/svg"><g id="Page-1" fill="none" fill-rule="evenodd"><g id="039---Statistical-Chat" fill-rule="nonzero"><path id="Shape" d="m54.7 39.11 3.741 11.214c.1141054.3417339.0355647.7184293-.2055989.9860899-.2411637.2676606-.6076637.3849031-.9594011.3069101l-14.436-3.207c-4.0603856 1.7241321-8.4287497 2.6052897-12.84 2.59-16.02 0-29-11.19-29-25s12.98-25 29-25 29 11.19 29 25c-.01861 4.7135207-1.523312 9.3011121-4.3 13.11z" fill="#ffdc00"/><path id="Shape" d="m54.7 39.11c2.776688-3.8088879 4.28139-8.3964793 4.3-13.11 0-13.81-12.98-25-29-25-.5033333 0-1.0033333.011-1.5.033 15.323.673 27.5 11.591 27.5 24.967-.01861 4.7135207-1.523312 9.3011121-4.3 13.11l3.741 11.214c.0969947.2890469.0533433.6068144-.118.859l1.953.434c.3517374.077993.7182374-.0392495.9594011-.3069101.2411636-.2676606.3197043-.644356.2055989-.9860899z" fill="#fec108"/><g fill="#f44335"><path id="Shape" d="m30 42c-.5522847 0-1-.4477153-1-1v-12c0-.5522847.4477153-1 1-1s1 .4477153 1 1v12c0 .5522847-.4477153 1-1 1z"/><path id="Shape" d="m25 42c-.5522847 0-1-.4477153-1-1v-8c0-.5522847.4477153-1 1-1s1 .4477153 1 1v8c0 .5522847-.4477153 1-1 1z"/><path id="Shape" d="m20 42c-.5522847 0-1-.4477153-1-1v-4c0-.5522847.4477153-1 1-1s1 .4477153 1 1v4c0 .5522847-.4477153 1-1 1z"/><path id="Shape" d="m35 42c-.5522847 0-1-.4477153-1-1v-8c0-.5522847.4477153-1 1-1s1 .4477153 1 1v8c0 .5522847-.4477153 1-1 1z"/><path id="Shape" d="m40 42c-.5522847 0-1-.4477153-1-1v-13c0-.5522847.4477153-1 1-1s1 .4477153 1 1v13c0 .5522847-.4477153 1-1 1z"/></g><path id="Shape" d="m46 14h-6c-.5522847 0-1 .4477153-1 1s.4477153 1 1 1h3.586l-8.586 8.586-4.293-4.293c-.3904999-.3903819-1.0235001-.3903819-1.414 0l-15 15c-.2599566.2510745-.3642126.6228779-.2726972.9725073.0915155.3496295.3645604.6226744.7141899.7141899.3496294.0915154.7214328-.0127406.9725073-.2726972l14.293-14.293 4.293 4.293c.3904999.3903819 1.0235001.3903819 1.414 0l9.293-9.293v3.586c0 .5522847.4477153 1 1 1s1-.4477153 1-1v-6c0-.5522847-.4477153-1-1-1z" fill="#02a9f4"/><path id="Shape" d="m30 0c-16.542 0-30 11.664-30 26s13.458 26 30 26c4.4378199.0193392 8.8350398-.8454871 12.935-2.544l14.123 3.137c.1460997.0325298.2953226.0489611.445.049.6414351-.0031569 1.2424348-.313782 1.6159958-.8352234.3735611-.5214413.4743494-1.1904184.2710042-1.7987766l-3.581-10.737c2.7121983-3.8954569 4.1740215-8.524389 4.191-13.271 0-14.336-13.458-26-30-26zm23.888 38.527c-.1871516.2607855-.2377397.5955598-.136.9l3.74 11.215-14.435-3.208c-.0712406-.0158957-.1440075-.0239437-.217-.024-.1374313-.0002501-.2734931.0273025-.4.081-3.9325134 1.6748398-8.1657323 2.5286297-12.44 2.509-15.439 0-28-10.766-28-24s12.561-24 28-24 28 10.767 28 24c-.020848 4.5039224-1.4595643 8.8868989-4.112 12.527z" fill="#000"/><path id="Shape" d="m45 40h-29v-29c0-.5522847-.4477153-1-1-1s-1 .4477153-1 1v30c0 .5522847.4477153 1 1 1h30c.5522847 0 1-.4477153 1-1s-.4477153-1-1-1z" fill="#000"/></g></g></svg>