<svg height="480pt" viewBox="0 0 480 480" width="480pt" xmlns="http://www.w3.org/2000/svg"><path d="m424 240h-160c-8.824219.027344-15.972656 7.175781-16 16v96c.027344 8.824219 7.175781 15.972656 16 16h160c8.824219-.027344 15.972656-7.175781 16-16v-96c-.027344-8.824219-7.175781-15.972656-16-16zm0 0" fill="#c6c5ca"/><path d="m328 320v96h32v-96zm0 0" fill="#acabb1"/><path d="m384 24v112c-.027344 8.824219-7.175781 15.972656-16 16h-104l-48 48v-48h-56c-8.824219-.027344-15.972656-7.175781-16-16v-112c.027344-8.824219 7.175781-15.972656 16-16h208c8.824219.027344 15.972656 7.175781 16 16zm0 0" fill="#ffd422"/><path d="m168 416h-112v-39.839844c-.015625-14.296875 9.453125-26.867187 23.199219-30.800781l21.199219-6.078125 27.601562 20.71875 27.601562-20.71875 21.199219 6.078125c13.746094 3.933594 23.214844 16.503906 23.199219 30.800781v39.839844zm0 0" fill="#3d9ae2"/><path d="m155.601562 339.28125-27.601562 20.71875-27.601562-20.71875 11.601562-3.28125v-20.320312c9.890625 5.761718 22.109375 5.761718 32 0v20.320312zm0 0" fill="#ffdaaa"/><path d="m160 272v16c-.015625 8.484375-3.378906 16.621094-9.359375 22.640625-1.996094 1.945313-4.226563 3.640625-6.640625 5.039063-9.894531 5.714843-22.085938 5.714843-31.984375.007812s-16.003906-16.261719-16.015625-27.6875v-16h9.441406c9.484375.019531 18.761719-2.796875 26.636719-8.078125l11.921875-7.921875 3.601562 7.121094c2.355469 4.84375 7.039063 8.140625 12.398438 8.71875zm0 0" fill="#ffdaaa"/><path d="m24 440h432v32h-432zm0 0" fill="#898890"/><path d="m128 224c22.089844 0 40 17.910156 40 40v8h-6.078125c-.644531.027344-1.289063-.027344-1.921875-.160156-5.359375-.578125-10.042969-3.875-12.398438-8.71875l-3.601562-7.121094-11.921875 7.921875c-7.875 5.28125-17.152344 8.097656-26.636719 8.078125h-17.441406v-8c0-22.089844 17.910156-40 40-40zm0 0" fill="#57565c"/><path d="m144 315.679688v8c-9.890625 5.761718-22.109375 5.761718-32 0v-8c9.890625 5.761718 22.109375 5.761718 32 0zm0 0" fill="#f2ca96"/><path d="m48 416c0 4.417969 3.582031 8 8 8h144c4.417969 0 8-3.582031 8-8v-39.839844c-.042969-17.847656-11.855469-33.53125-29-38.496094l-27-7.710937v-10.160156c10.035156-7.492188 15.964844-19.269531 16-31.792969v-8c4.417969 0 8-3.582031 8-8v-8c0-26.507812-21.492188-48-48-48s-48 21.492188-48 48v8c0 4.417969 3.582031 8 8 8v8c.035156 12.523438 5.964844 24.300781 16 31.792969v10.160156l-26.992188 7.710937c-17.148437 4.960938-28.96875 20.644532-29.007812 38.496094zm80-184c17.589844 0 31.882812 14.195312 32 31.785156-2.296875-.558594-4.230469-2.101562-5.28125-4.21875l-3.558594-7.132812c-1.023437-2.058594-2.882812-3.574219-5.101562-4.164063-2.222656-.59375-4.585938-.199219-6.5 1.074219l-11.902344 7.9375c-6.570312 4.386719-14.292969 6.726562-22.191406 6.71875h-9.464844c0-17.671875 14.328125-32 32-32zm-22.535156 48c11.058594.011719 21.867187-3.265625 31.0625-9.40625l4.382812-2.921875c2.519532 4.445313 6.410156 7.953125 11.089844 10v10.328125c0 13.253906-10.746094 24-24 24s-24-10.746094-24-24v-8zm22.535156 48c2.6875.003906 5.367188-.265625 8-.800781v8.800781c.027344 2.277344 1.03125 4.433594 2.761719 5.921875l-10.761719 8.078125-10.761719-8.078125c1.730469-1.488281 2.734375-3.644531 2.761719-5.921875v-8.800781c2.632812.535156 5.3125.804687 8 .800781zm-64 48.160156c.019531-10.714844 7.109375-20.128906 17.398438-23.113281l17.402343-4.957031 24.398438 18.308594c2.84375 2.136718 6.757812 2.136718 9.601562 0l24.398438-18.308594 17.410156 4.964844c10.285156 2.980468 17.371094 12.394531 17.390625 23.105468v31.839844h-16v-32h-16v32h-64v-32h-16v32h-16zm0 0"/><path d="m424 376c13.253906 0 24-10.746094 24-24v-96c0-13.253906-10.746094-24-24-24h-160c-13.253906 0-24 10.746094-24 24v96c0 13.253906 10.746094 24 24 24h56v32h-16v16h80v-16h-16v-32zm-160-16c-4.417969 0-8-3.582031-8-8v-96c0-4.417969 3.582031-8 8-8h160c4.417969 0 8 3.582031 8 8v96c0 4.417969-3.582031 8-8 8h-56v-40c0-4.417969-3.582031-8-8-8h-32c-4.417969 0-8 3.582031-8 8v40zm72 48v-80h16v80zm0 0"/><path d="m160 160h48v40c0 3.234375 1.949219 6.152344 4.9375 7.390625s6.429688.550781 8.71875-1.734375l45.65625-45.65625h100.6875c13.253906 0 24-10.746094 24-24v-112c0-13.253906-10.746094-24-24-24h-208c-13.253906 0-24 10.746094-24 24v112c0 13.253906 10.746094 24 24 24zm-8-136c0-4.417969 3.582031-8 8-8h208c4.417969 0 8 3.582031 8 8v112c0 4.417969-3.582031 8-8 8h-104c-2.121094 0-4.15625.84375-5.65625 2.34375l-34.34375 34.34375v-28.6875c0-4.417969-3.582031-8-8-8h-56c-4.417969 0-8-3.582031-8-8zm0 0"/><path d="m480 432h-480v16h16v24c0 4.417969 3.582031 8 8 8h432c4.417969 0 8-3.582031 8-8v-24h16zm-32 32h-416v-16h416zm0 0"/><path d="m192 40h144v16h-144zm0 0"/><path d="m192 72h144v16h-144zm0 0"/><path d="m192 104h144v16h-144zm0 0"/><path d="m8 272h40v-16h-32v-176h40v-16h-48c-4.417969 0-8 3.582031-8 8v192c0 4.417969 3.582031 8 8 8zm0 0"/><path d="m72 64h16v16h-16zm0 0"/><path d="m104 64h16v16h-16zm0 0"/><path d="m432 152h16v-80c0-4.417969-3.582031-8-8-8h-32v16h24zm0 0"/><path d="m432 168h16v16h-16zm0 0"/><path d="m432 200h16v16h-16zm0 0"/></svg>